<?xml version="1.0" standalone="no"?>
<!DOCTYPE svg PUBLIC "-//W3C//DTD SVG 20010904//EN"
 "http://www.w3.org/TR/2001/REC-SVG-20010904/DTD/svg10.dtd">
<svg version="1.0" xmlns="http://www.w3.org/2000/svg"
 width="648.000000pt" height="648.000000pt" viewBox="0 0 648.000000 648.000000"
 preserveAspectRatio="xMidYMid meet">
<metadata>
Created by potrace 1.11, written by Peter Selinger 2001-2013
</metadata>
<g transform="translate(0.000000,648.000000) scale(0.100000,-0.100000)"
fill="#000000" stroke="none">
<path d="M0 3240 l0 -3240 3240 0 3240 0 0 3240 0 3240 -3240 0 -3240 0 0
-3240z m3827 2816 c26 -4 23 -16 -21 -65 -28 -32 -46 -61 -46 -76 0 -14 -16
-60 -37 -101 l-36 -77 13 -91 c23 -157 23 -167 5 -243 -27 -113 -11 -190 54
-259 83 -88 100 -233 40 -349 -26 -49 -112 -173 -156 -223 -27 -31 -33 -45
-33 -85 0 -26 -6 -62 -14 -80 -18 -44 -100 -115 -172 -151 -204 -101 -379
-284 -433 -454 -22 -66 -23 -79 -13 -140 6 -37 32 -116 56 -177 76 -185 71
-257 -8 -137 -89 135 -162 327 -198 522 -31 168 -30 432 2 545 12 44 28 100
35 125 7 25 10 47 8 50 -14 14 -63 -70 -87 -148 -57 -187 -71 -386 -41 -602
21 -159 50 -226 183 -429 45 -69 82 -131 82 -138 0 -25 -28 -13 -81 34 -233
203 -379 387 -490 616 -161 335 -181 679 -63 1042 171 522 729 1032 1199 1094
57 7 188 6 252 -3z m-2963 -1619 c147 -150 268 -204 476 -214 88 -4 137 -1
210 13 204 40 279 22 402 -94 116 -110 216 -280 292 -501 104 -299 253 -480
461 -561 50 -20 79 -24 177 -24 64 -1 119 -4 123 -8 11 -11 -63 -43 -150 -66
-193 -51 -375 -64 -509 -37 -168 35 -372 143 -522 279 -54 48 -84 58 -84 29 0
-22 118 -136 203 -197 87 -62 205 -120 302 -148 72 -21 99 -23 275 -22 187 1
308 15 513 60 79 18 -28 -67 -192 -150 -268 -136 -661 -236 -876 -223 -397 25
-827 319 -1135 777 -81 120 -118 199 -147 309 -45 172 -43 636 4 777 17 53 48
94 71 94 8 0 56 -42 106 -93z m3618 -257 c47 -10 135 -38 195 -61 141 -56 190
-59 403 -24 199 33 258 30 350 -13 129 -62 276 -200 315 -296 32 -78 30 -82
-18 -37 -99 93 -205 141 -313 141 -39 0 -122 -13 -203 -32 -98 -22 -160 -31
-223 -31 l-87 0 -153 76 c-294 147 -483 171 -664 86 -109 -51 -205 -135 -451
-396 -137 -144 -145 -151 -214 -176 -39 -15 -76 -24 -81 -21 -37 23 45 247
154 421 93 150 130 183 291 262 206 101 274 118 482 120 94 0 154 -5 217 -19z
m496 -574 c15 -9 38 -27 51 -41 39 -42 81 -58 161 -63 65 -3 88 0 170 28 119
39 183 47 230 28 19 -8 70 -43 112 -76 43 -34 109 -78 148 -97 38 -20 70 -38
70 -40 0 -9 -57 13 -173 67 -157 74 -190 75 -259 9 -25 -24 -53 -41 -67 -41
-13 0 -50 -7 -83 -16 -94 -24 -127 -14 -188 57 -40 45 -60 60 -88 65 -20 4
-49 13 -64 20 -15 8 -60 17 -101 20 l-73 7 -17 -45 c-22 -56 -79 -124 -95
-114 -7 4 -24 29 -37 56 -14 27 -34 54 -44 60 -51 27 -126 -4 -168 -70 -42
-67 -51 -73 -100 -66 -25 3 -86 27 -136 52 -82 41 -102 47 -182 54 -66 5 -100
13 -127 29 -21 13 -38 27 -38 31 0 12 181 24 235 16 25 -4 61 -14 80 -22 43
-18 154 -18 221 0 28 7 86 29 130 49 43 19 113 40 154 47 41 6 82 13 90 15 32
8 162 -6 188 -19z m-1279 -552 c84 -42 137 -90 213 -195 63 -86 93 -113 146
-130 20 -6 60 -29 87 -49 28 -21 78 -53 112 -70 78 -40 120 -82 134 -134 11
-42 13 -38 -60 -236 -56 -153 -37 -240 58 -268 66 -20 108 -80 194 -274 114
-259 110 -245 110 -393 0 -112 -5 -150 -33 -270 -32 -136 -32 -144 -24 -270
21 -331 1 -357 -81 -105 -16 47 -43 114 -61 150 -18 36 -54 112 -79 170 -93
212 -187 361 -256 407 -28 18 -65 29 -126 38 -100 15 -129 32 -161 97 -19 38
-24 67 -28 184 -5 121 -9 144 -29 174 -56 88 -99 262 -93 378 3 62 10 91 37
147 56 118 64 158 57 270 -3 55 -12 127 -20 159 -21 83 -3 57 28 -41 58 -186
64 -241 53 -453 -10 -166 0 -271 40 -430 15 -62 26 -136 27 -182 1 -105 2
-105 196 -197 95 -45 154 -96 211 -185 71 -108 124 -281 131 -424 1 -35 6 -66
10 -68 24 -15 31 269 9 396 -39 229 -73 314 -230 570 -82 134 -167 314 -209
445 -41 126 -56 201 -70 352 -9 90 -11 95 -57 155 -47 62 -132 138 -154 138
-6 0 -11 6 -11 14 0 43 -93 105 -182 121 -35 7 -48 22 -31 38 16 17 76 4 142
-29z m-376 -109 c7 -24 12 -103 12 -200 0 -140 -3 -169 -23 -235 -59 -187
-157 -313 -497 -640 -114 -109 -119 -115 -92 -118 42 -5 153 32 225 75 92 55
222 224 316 411 85 169 106 259 106 457 0 220 12 225 71 30 34 -110 34 -111
31 -293 -3 -220 -30 -445 -67 -557 -25 -75 -47 -129 -124 -299 l-32 -69 -22
21 c-24 23 -68 42 -97 42 -34 0 -83 -53 -117 -127 -18 -39 -33 -80 -33 -90 1
-17 1 -17 11 0 10 16 13 17 27 4 10 -8 27 -18 40 -22 l22 -7 -30 -38 c-111
-140 -495 -331 -800 -398 -202 -45 -361 -53 -534 -27 -127 19 -218 47 -334
101 -132 62 -292 172 -292 201 0 19 37 25 101 18 55 -6 66 -4 125 25 73 36
173 129 228 212 51 76 76 147 87 246 10 88 38 167 91 255 110 183 303 356 472
424 55 23 82 26 281 34 256 11 369 28 471 70 137 57 281 189 309 283 9 30 15
91 15 152 0 56 3 110 7 120 6 16 7 16 20 -2 7 -10 19 -37 26 -59z"/>
<path d="M3467 5662 c-42 -46 -45 -129 -6 -171 27 -28 58 -26 97 7 29 23 33
34 35 79 2 42 -2 56 -22 77 -29 31 -80 35 -104 8z"/>
<path d="M3522 5373 c-21 -37 30 -88 79 -81 31 4 39 51 13 79 -22 24 -79 26
-92 2z"/>
<path d="M3390 5355 c-22 -27 30 -125 66 -125 34 0 46 86 17 112 -28 24 -69
30 -83 13z"/>
</g>
</svg>
